# xmcd CD database file
#
# Track frame offsets:
#	150
#	13775
#	26527
#	41120
#	55060
#	77602
#	91547
#	109720
#	121060
#	145990
#	167492
#	179040
#	191685
#	207267
#	218305
#	230630
#	243375
#	255977
#	267352
#	284725
#
# Disc length: 4034 seconds
#
# Revision: 3
# Processed by: cddbd v1.5.2PL0 Copyright (c) Steve Scherf et al.
# Submitted via: CDex 1.70beta2
#
DISCID=130fc014
DTITLE=Dinah Washington - Smoke Gets in Your Eyes 2 - The Best Of
DYEAR=1999
DGENRE=Jazz
TTITLE0=Stairway To The Stars
TTITLE1=I Wanna Be Loved
TTITLE2=Am I Blue
TTITLE3=My Old Flame
TTITLE4=Easy Living
TTITLE5=I Thought About You
TTITLE6=You Don'y Know What Love Is
TTITLE7=Our Love Is Here To Stay
TTITLE8=Make The Man Love Me
TTITLE9=If I Had You
TTITLE10=When I Fall In Love
TTITLE11=Look To The Rainbow
TTITLE12=Willow Weep For Me
TTITLE13=I've Got a Feeling I'm Falling
TTITLE14=Never Let Me Go
TTITLE15=Good Moring Heartache
TTITLE16=It Shouldn't Happen To a Dream
TTITLE17=It's Magic
TTITLE18=More Than You Know
TTITLE19=I'll Close My Eyes
EXTD=YEAR: 1999
EXTT0=
EXTT1=
EXTT2=
EXTT3=
EXTT4=
EXTT5=
EXTT6=
EXTT7=
EXTT8=
EXTT9=
EXTT10=
EXTT11=
EXTT12=
EXTT13=
EXTT14=
EXTT15=
EXTT16=
EXTT17=
EXTT18=
EXTT19=
PLAYORDER=
